<svg height="480pt" viewBox="0 0 480 480" width="480pt" xmlns="http://www.w3.org/2000/svg"><path d="m24 216h432v256h-432zm0 0" fill="#cfdfe8"/><path d="m8 8h464v128h-464zm0 0" fill="#f4f4e6"/><g fill="#da1c4b"><path d="m160 112h-32c-4.417969 0-8-3.582031-8-8v-64c0-4.417969 3.582031-8 8-8h32c4.417969 0 8 3.582031 8 8v64c0 4.417969-3.582031 8-8 8zm-24-16h16v-48h-16zm0 0"/><path d="m224 112h-40v-16h32v-16h-24c-4.417969 0-8-3.582031-8-8v-32c0-4.417969 3.582031-8 8-8h40v16h-32v16h24c4.417969 0 8 3.582031 8 8v32c0 4.417969-3.582031 8-8 8zm0 0"/><path d="m88 64h-16v-32h-16v80h16v-32h16v32h16v-80h-16zm0 0"/><path d="m248 48h16v64h16v-64h16v-16h-48zm0 0"/><path d="m360 48v-16h-40c-4.417969 0-8 3.582031-8 8v64c0 4.417969 3.582031 8 8 8h40v-16h-32v-16h32v-16h-32v-16zm0 0"/><path d="m424 112h-40c-4.417969 0-8-3.582031-8-8v-72h16v64h32zm0 0"/></g><path d="m64 248h64v64h-64zm0 0" fill="#2d75bb"/><path d="m160 248h64v64h-64zm0 0" fill="#2d75bb"/><path d="m256 248h64v64h-64zm0 0" fill="#2d75bb"/><path d="m352 248h64v64h-64zm0 0" fill="#2d75bb"/><path d="m64 344h64v64h-64zm0 0" fill="#2d75bb"/><path d="m352 344h64v64h-64zm0 0" fill="#2d75bb"/><path d="m160 344h80v128h-80zm0 0" fill="#aec7d3"/><path d="m240 344h80v128h-80zm0 0" fill="#94b3bf"/><path d="m200 392h16v16h-16zm0 0" fill="#394d5c"/><path d="m264 392h16v16h-16zm0 0" fill="#394d5c"/><path d="m24 440h136v32h-136zm0 0" fill="#394d5c"/><path d="m320 440h136v32h-136zm0 0" fill="#394d5c"/><path d="m56 136h32v80h-32zm0 0" fill="#394d5c"/><path d="m400 136h32v80h-32zm0 0" fill="#394d5c"/><path d="m472 0h-464c-4.417969 0-8 3.582031-8 8v128c0 4.417969 3.582031 8 8 8h40v64h-24c-4.417969 0-8 3.582031-8 8v256c0 4.417969 3.582031 8 8 8h432c4.417969 0 8-3.582031 8-8v-256c0-4.417969-3.582031-8-8-8h-16v-64h32c4.417969 0 8-3.582031 8-8v-128c0-4.417969-3.582031-8-8-8zm-408 144h16v64h-16zm328 0v64h-296v-64zm-360 304h120v16h-120zm136-8v-88h64v112h-64zm80-88h64v112h-64zm200 112h-120v-16h120zm0-32h-120v-88c0-4.417969-3.582031-8-8-8h-160c-4.417969 0-8 3.582031-8 8v88h-120v-208h416zm-24-224h-16v-64h16zm40-80h-448v-112h448zm0 0"/><path d="m72 80h16v32h16v-80h-16v32h-16v-32h-16v80h16zm0 0"/><path d="m128 112h32c4.417969 0 8-3.582031 8-8v-64c0-4.417969-3.582031-8-8-8h-32c-4.417969 0-8 3.582031-8 8v64c0 4.417969 3.582031 8 8 8zm8-64h16v48h-16zm0 0"/><path d="m232 104v-32c0-4.417969-3.582031-8-8-8h-24v-16h32v-16h-40c-4.417969 0-8 3.582031-8 8v32c0 4.417969 3.582031 8 8 8h24v16h-32v16h40c4.417969 0 8-3.582031 8-8zm0 0"/><path d="m264 112h16v-64h16v-16h-48v16h16zm0 0"/><path d="m320 112h40v-16h-32v-16h32v-16h-32v-16h32v-16h-40c-4.417969 0-8 3.582031-8 8v64c0 4.417969 3.582031 8 8 8zm0 0"/><path d="m384 112h40v-16h-32v-64h-16v72c0 4.417969 3.582031 8 8 8zm0 0"/><path d="m128 240h-64c-4.417969 0-8 3.582031-8 8v64c0 4.417969 3.582031 8 8 8h64c4.417969 0 8-3.582031 8-8v-64c0-4.417969-3.582031-8-8-8zm-8 64h-48v-48h48zm0 0"/><path d="m224 240h-64c-4.417969 0-8 3.582031-8 8v64c0 4.417969 3.582031 8 8 8h64c4.417969 0 8-3.582031 8-8v-64c0-4.417969-3.582031-8-8-8zm-8 64h-48v-48h48zm0 0"/><path d="m320 240h-64c-4.417969 0-8 3.582031-8 8v64c0 4.417969 3.582031 8 8 8h64c4.417969 0 8-3.582031 8-8v-64c0-4.417969-3.582031-8-8-8zm-8 64h-48v-48h48zm0 0"/><path d="m416 240h-64c-4.417969 0-8 3.582031-8 8v64c0 4.417969 3.582031 8 8 8h64c4.417969 0 8-3.582031 8-8v-64c0-4.417969-3.582031-8-8-8zm-8 64h-48v-48h48zm0 0"/><path d="m128 336h-64c-4.417969 0-8 3.582031-8 8v64c0 4.417969 3.582031 8 8 8h64c4.417969 0 8-3.582031 8-8v-64c0-4.417969-3.582031-8-8-8zm-8 64h-48v-48h48zm0 0"/><path d="m416 336h-64c-4.417969 0-8 3.582031-8 8v64c0 4.417969 3.582031 8 8 8h64c4.417969 0 8-3.582031 8-8v-64c0-4.417969-3.582031-8-8-8zm-8 64h-48v-48h48zm0 0"/><path d="m200 392h16v16h-16zm0 0"/><path d="m264 392h16v16h-16zm0 0"/></svg>